<?xml version="1.0" encoding="UTF-8"?>
<svg width="190.96mm" height="122.98mm" version="1.1" viewBox="0 0 190.96 122.98" xml:space="preserve" xmlns="http://www.w3.org/2000/svg"><g transform="translate(-12.385 -75.1)"><path d="m129.2 140.42v5.2e-4l-13.776 42.807v5.2e-4l-1.8097 14.821 47.438-2.6929 11.607-40.202z" fill="#f8f8f8" stroke="#000" stroke-linejoin="round" stroke-width=".065"/><path d="m61.901 111.74 0.41238 19.423-2.8742 11.4 26.725 3.7703 2.5068-21.39 3.0985-26.437z" fill="#ececec" stroke="#000" stroke-linejoin="round" stroke-width=".065"/><path d="m144.52 75.133-8.0078 42.572-7.3086 22.711 43.459 14.734 17.403-18.537 13.25-45.151z" fill="#f8f8f8" stroke="#000" stroke-linejoin="round" stroke-width=".065"/><path d="m144.52 75.133-52.751 23.372-3.0985 26.437-2.5068 21.39 50.348-28.626z" fill="#f2f2f2" stroke="#000" stroke-linejoin="round" stroke-width=".065"/><path d="m136.51 117.7-50.348 28.626 7.6197 10.906 0.0021 3e-3 0.72399 0.90899 1.3818 34.384 17.726 5.5123v-5.2e-4l1.8097-14.821v-5.2e-4l13.776-42.807v-5.2e-4z" fill="#f2f2f2" stroke="#000" stroke-linejoin="round" stroke-width=".065"/><path d="m93.756 157.2-6.0556-8.6672-16.745 8.3597-6.9717 21.46 16.266-1.9916 10.438-18.326 2.4305-1.7476z" fill="#ccc" stroke="#000" stroke-linejoin="round" stroke-width=".065"/><path d="m64.012 178.39 6.9717-21.46-43.685-12.194 8.8506 34.506z" fill="#f8f8f8" stroke="#000" stroke-linejoin="round" stroke-width=".065"/><path d="m14.148 118.58 48.166 12.578-0.41238-19.423-49.483-7.4703z" fill="#f9f9f9" stroke="#000" stroke-linejoin="round" stroke-width=".065"/><path d="m70.984 156.93 16.745-8.3597" fill="#f8f8f8" stroke="#000" stroke-linejoin="round" stroke-width=".065"/><path d="m70.984 156.93 16.745-8.3597-1.5641-2.2386-26.725-3.7703 2.8742-11.4-48.166-12.578 13.152 26.153 43.685 12.194" fill="#ececec" stroke="#000" stroke-linejoin="round" stroke-width=".065"/><path d="m144.52 75.133-5.6384 42.44-5.1628 20.181 38.944 17.396-43.459-14.734 7.3086-22.711 8.0078-42.572" fill="#b3b3b3"/><path d="m59.439 142.56 25.15 2.1426 7.1805-46.199-5.6053 47.827-26.725-3.7703" fill="#b3b3b3"/><path d="m25.738 141.63 45.246 15.299-43.685-12.194-1.4668-2.9168" fill="#b3b3b3"/><path d="m93.075 156.28-2.397 1.7182-10.614 6.1278-9.0808-7.1954 9.054 5.7341" fill="#b3b3b3"/></g></svg>
