<?xml version="1.0" encoding="UTF-8"?>
<svg width="200.2mm" height="121.41mm" version="1.1" viewBox="0 0 200.2 121.41" xml:space="preserve" xmlns="http://www.w3.org/2000/svg"><g transform="translate(-4.4853 -96.632)" stroke-linejoin="round" stroke-width=".265"><path d="m64.923 96.764-60.305 18.065 18.826 41.452 41.097-13.886z" fill="#f2f2f2" stroke="#000"/><path d="m64.541 142.39-41.097 13.886 10.627 19.952 35.15-0.19327 2.7972-17.036z" fill="#ececec" stroke="#000"/><path d="m72.018 159-2.7972 17.036 38.663 5.8193z" fill="#e6e6e6" stroke="#000"/><path d="m107.88 181.86-38.663-5.8193 6.6285 35.631 23.981-3.0944 6.5174-21.622z" fill="#f2f2f2" stroke="#000"/><path d="m40.424 210.07 35.425 1.6025-6.6285-35.631-35.15 0.19327 2.0423 10.876z" fill="#f2f2f2" stroke="#000"/><path d="m75.674 217.91 0.17518-6.241-35.425-1.6025 0.11679 5.2514z" fill="#f9f9f9" stroke="#000"/><path d="m99.831 208.58-23.981 3.0944-0.17518 6.241 24.202-3.4928z" fill="#f9f9f9" stroke="#000"/><path d="m155.24 197.51-11.445 2.4898 0.20516 3.8716 11.125-2.7058z" fill="#f9f9f9" stroke="#000"/><path d="m144 203.87-0.20516-3.8716-17.772-1.6438 0.18603 3.7z" fill="#f2f2f2" stroke="#000"/><path d="m126.21 202.05-0.18603-3.7-5.9929-1.0547 0.2744 2.5668z" fill="#e6e6e6" stroke="#000"/><path d="m120.03 197.3 5.9929 1.0547-4.4685-22.445-5.7614-7.6786-3.945 0.46922-0.40566 1.3441v5.1e-4z" fill="#ccc" stroke="#000"/><path d="m159.07 184.02-12.471-6.5831-2.8448 21.804 0.0398 0.75499 11.445-2.4898 1.9156-6.7432z" fill="#d9d9d9" stroke="#000"/><path d="m152.27 148.5-30.71 27.407 4.4685 22.445 17.772 1.6438-0.0398-0.75499 2.8448-21.804 5.7976-4.4509z" fill="#e2e2e2" stroke="#000"/><path d="m197.31 155.31-12.841-6.9386-37.865 29.069 12.471 6.5831z" fill="#d3d3d3" stroke="#000"/><path d="m183.45 120.88 1.0175 27.491 12.841 6.9386 7.2486-23.291z" fill="#f2f2f2" stroke="#000"/><path d="m147.87 126.31 4.3961 22.195 0.13281 24.485 32.067-24.618-0.50876-13.745-0.50875-13.745z" fill="#f2f2f2" stroke="#000"/><path d="m118.51 119.1 5.9588 36.986 27.803-7.5882-4.3961-22.195z" fill="#f2f2f2" stroke="#000"/><path d="m64.923 96.764-0.38241 45.63 7.4771 16.609 35.866 22.855 3.5621-11.816v-5.1e-4l0.40566-1.3441 1.0568-3.5062 11.556-9.1033-5.9588-36.986z" fill="#f2f2f2" stroke="#000"/><path d="m111.85 168.7 3.945-0.46922 36.471-19.729-27.803 7.5882-11.556 9.1033z" fill="#ccc" stroke="#000"/><path d="m152.27 148.5-36.471 19.729 5.7614 7.6786z" fill="#d6d6d6" stroke="#040404"/></g></svg>
